<svg width="383" height="188" viewBox="0 0 383 188" fill="none" xmlns="http://www.w3.org/2000/svg">
<g clip-path="url(#clip0_1028_84)">
<path d="M275.739 101.384C295.889 89.7994 315.985 78.1209 336.203 66.6564C355.394 55.773 377.974 65.8104 382.324 86.9902C384.842 99.2423 379.377 112.478 368.326 118.925C332.095 140.058 295.812 161.108 259.348 181.835C248.062 188.25 236.437 187.07 226.152 179.209C215.704 171.227 212.411 160.218 214.861 147.405C217.659 137.65 224.062 131.129 232.794 126.25C247.232 118.185 261.435 109.694 275.739 101.384Z" fill="#FABC05"/>
<path d="M290.532 92.9599C270.433 81.2858 250.283 69.703 230.255 57.9107C211.242 46.7158 208.639 22.1247 224.787 7.76124C234.128 -0.545081 248.312 -2.42737 259.415 3.92928C295.816 24.7692 332.17 45.6975 368.334 66.9418C379.528 73.517 384.318 84.1863 382.662 97.0329C380.979 110.079 373.101 118.437 360.79 122.722C350.951 125.174 342.108 122.883 333.52 117.753C319.322 109.27 304.875 101.202 290.532 92.9599Z" fill="#109D58"/>
<path d="M107.342 84.6997C94.445 92.0342 81.5403 99.3552 68.6566 106.712C61.1196 111.016 53.6665 115.466 46.0906 119.698C30.8267 128.226 12.692 123.227 4.03748 108.207C-4.22205 93.8731 0.524819 75.2898 15.2247 66.7005C51.1666 45.7018 87.2013 24.8559 123.366 4.24355C134.458 -2.07866 145.965 -1.28352 156.222 6.27408C167.047 14.251 170.591 25.4758 168.16 38.6354C166.652 41.8189 165.751 45.5521 163.494 48.0603C159.821 52.1408 155.647 56.0476 151.001 58.9167C136.621 67.7921 121.919 76.1448 107.342 84.6997Z" fill="#E94436"/>
<path d="M92.5542 92.9268C105.35 100.438 118.136 107.966 130.944 115.456C138.434 119.837 146.012 124.074 153.46 128.523C168.471 137.492 173.215 155.71 164.546 170.722C156.273 185.05 137.822 190.228 123.04 181.778C86.9008 161.12 50.8482 140.309 14.9317 119.265C3.91649 112.811 -1.14903 102.439 0.261714 89.7687C1.75025 76.3951 9.68964 67.7114 22.2906 63.2385C25.7988 62.9555 29.479 61.8684 32.7792 62.5721C38.1454 63.7162 43.6134 65.3799 48.4186 67.9734C63.2876 75.9997 77.8648 84.5681 92.5542 92.9268Z" fill="#4385F3"/>
</g>
<defs>
<clipPath id="clip0_1028_84">
<rect width="382.981" height="187.181" fill="white"/>
</clipPath>
</defs>
</svg>
